<svg width="63" height="22" viewBox="0 0 63 22" fill="none" xmlns="http://www.w3.org/2000/svg">
<path d="M10.6845 0H13.4577C15.1776 0 16.7326 0.667973 18.1228 2.00392C19.4127 3.38296 20.0576 4.92001 20.0576 6.61508V6.87365C20.0576 8.52563 19.4342 10.0411 18.1873 11.4202C16.7828 12.7992 15.1776 13.4887 13.3717 13.4887H5.50348V13.5103C6.14842 14.875 7.17316 15.8805 8.57769 16.5269C9.38028 16.8573 10.1327 17.0225 10.835 17.0225H12.6193C13.8519 17.0225 14.8049 17.2452 15.4785 17.6905C16.4818 18.2364 17.2127 19.0983 17.6713 20.2762C17.872 20.8364 17.9723 21.4039 17.9723 21.9785L17.9293 22H10.6845C9.09364 22 7.44547 21.5619 5.73996 20.6856C5.08069 20.3408 4.30676 19.7734 3.41818 18.9833C2.73024 18.2938 2.22862 17.712 1.91332 17.238C1.44036 16.5054 1.0964 15.8733 0.881417 15.3418C0.293806 13.9197 0 12.5478 0 11.2262V10.7738C0 8.89194 0.551781 7.0173 1.65534 5.14985C2.98822 3.08129 4.80838 1.59452 7.11583 0.68952C8.39138 0.22984 9.58093 0 10.6845 0ZM5.50348 8.51126H13.2643C14.1385 8.51126 14.7261 8.0875 15.0271 7.23996C15.0701 7.11068 15.0916 6.95984 15.0916 6.78746V6.65818C15.0916 6.04048 14.7691 5.53771 14.1242 5.14985C13.8662 5.03493 13.6154 4.97747 13.3717 4.97747H10.835C9.37312 4.97747 8.01874 5.54489 6.77186 6.67973C6.12692 7.38361 5.70413 7.99412 5.50348 8.51126Z" fill="white"/>
<path d="M32.0965 0H39.3413C39.3556 0 39.3628 0.014365 39.3628 0.043095V0.129285C39.3628 1.39341 38.854 2.55697 37.8364 3.61998C36.8189 4.52498 35.7225 4.97747 34.5472 4.97747H32.9349C31.645 4.97747 30.6919 5.13549 30.0757 5.45152C28.7141 6.01175 27.6894 6.97421 27.0015 8.33888C26.5858 9.21515 26.378 10.0986 26.378 10.9892C26.378 12.555 26.937 13.9556 28.0549 15.191C28.6281 15.7369 29.1513 16.1247 29.6242 16.3546C30.3695 16.6993 30.8496 16.8717 31.0646 16.8717C31.3942 16.9722 32.0177 17.0225 32.9349 17.0225H34.5472C35.8801 17.0225 37.0697 17.5756 38.1159 18.6817C38.9472 19.6729 39.3628 20.7359 39.3628 21.8707V21.9569C39.3628 21.9856 39.3556 22 39.3413 22H32.0965C30.606 22 29.0509 21.6121 27.4314 20.8364C26.6718 20.4486 25.9051 19.9171 25.1311 19.2419C24.6438 18.811 24.2067 18.3657 23.8198 17.906C23.1605 17.0153 22.6804 16.2325 22.3794 15.5573C21.7345 14.0346 21.412 12.6125 21.412 11.2909V10.7091C21.412 9.22951 21.7989 7.67091 22.5729 6.0333C22.9598 5.27196 23.4901 4.50343 24.1637 3.72772C24.5937 3.23931 25.038 2.80118 25.4966 2.41332C26.3708 1.75253 27.1519 1.27849 27.8399 0.991185C29.3161 0.330395 30.7349 0 32.0965 0Z" fill="white"/>
<path d="M51.1867 0H51.7671C53.2433 0 54.7983 0.387855 56.4322 1.16357C57.0341 1.4796 57.6791 1.89618 58.367 2.41332C59.0979 3.04538 59.664 3.61998 60.0653 4.13712C60.6816 4.95593 61.1331 5.67418 61.4197 6.29187C62.1077 7.85766 62.4516 9.33007 62.4516 10.7091V11.2909C62.4516 12.7705 62.0647 14.3291 61.2907 15.9667C60.9754 16.57 60.5598 17.2165 60.0438 17.906C59.4132 18.6386 58.84 19.206 58.324 19.6082C57.5071 20.2259 56.7905 20.6784 56.1742 20.9657C54.612 21.6552 53.143 22 51.7671 22H51.1867C49.7105 22 48.1555 21.6121 46.5216 20.8364C45.9197 20.5204 45.2747 20.1038 44.5868 19.5867C43.8559 18.9546 43.2898 18.38 42.8885 17.8629C42.2722 17.0441 41.8207 16.3258 41.5341 15.7081C40.8462 14.1423 40.5022 12.6699 40.5022 11.2909V10.7091C40.5022 9.22951 40.8891 7.67091 41.6631 6.0333C42.05 5.27196 42.5803 4.50343 43.2539 3.72772C43.6696 3.23931 44.1138 2.80118 44.5868 2.41332C45.4467 1.7669 46.1848 1.30722 46.8011 1.03428C48.3346 0.34476 49.7965 0 51.1867 0ZM45.4682 10.9892C45.4682 12.6699 46.106 14.1495 47.3815 15.428C48.6141 16.491 49.9756 17.0225 51.4662 17.0225C53.229 17.0225 54.7553 16.3258 56.0452 14.9324C57.0055 13.7258 57.4856 12.4616 57.4856 11.1401V11.097C57.4856 11.0539 57.4856 11.0251 57.4856 11.0108V10.903V10.8599C57.4856 9.4809 56.984 8.19523 55.9807 7.00294C55.3501 6.37088 54.913 6.00457 54.6693 5.90402C53.6804 5.28632 52.6199 4.97747 51.4877 4.97747C49.8108 4.97747 48.3346 5.61672 47.0591 6.8952C45.9985 8.13059 45.4682 9.49527 45.4682 10.9892Z" fill="white"/>
</svg>
