<svg width="1413" height="656" viewBox="0 0 1413 656" fill="none" xmlns="http://www.w3.org/2000/svg">
<g filter="url(#filter0_f_4036_7436)">
<path fill-rule="evenodd" clip-rule="evenodd" d="M1089.13 44.1349C1098.26 44.1349 1105.68 51.5559 1105.68 60.691H1113.04C1113.04 47.4921 1102.33 36.7766 1089.13 36.7766V44.1349Z" fill="#FF6264"/>
<path d="M61.5708 97L53.3487 105.679L45.1266 97L39 103.467L47.2076 112.146L39 120.825L45.1266 127.292L53.3487 118.613L61.5708 127.292L67.6974 120.825L59.4753 112.146L67.6974 103.467L61.5708 97Z" fill="#F5B3A5"/>
<path fill-rule="evenodd" clip-rule="evenodd" d="M150.009 279.922C147.194 282.1 145.642 285.545 145.649 289.459L145.649 289.47L145.649 289.47C145.661 291.653 144.832 293.106 143.786 293.916C142.738 294.726 141.114 295.167 138.988 294.611L137.37 300.795C141.156 301.785 144.881 301.149 147.696 298.971C150.512 296.794 152.06 293.351 152.041 289.442C152.038 287.247 152.873 285.788 153.92 284.978C154.966 284.169 156.581 283.732 158.691 284.292L158.702 284.295L158.702 284.295C162.488 285.285 166.213 284.649 169.028 282.471C171.845 280.292 173.393 276.847 173.373 272.936L166.981 272.969C166.992 275.152 166.164 276.606 165.117 277.415C164.07 278.225 162.448 278.666 160.324 278.112C156.545 277.111 152.824 277.745 150.009 279.922Z" fill="#35E6C5"/>
<path d="M298.511 39.65C301.072 36.9064 302.695 33.42 303.146 29.6939C303.597 25.9678 302.853 22.1948 301.02 18.9193C299.188 15.6438 296.362 13.0352 292.951 11.47C289.539 9.90475 285.719 9.46387 282.041 10.2109C278.363 10.958 275.017 12.8544 272.486 15.6264C269.956 18.3985 268.372 21.9028 267.962 25.6337C267.553 29.3646 268.339 33.1291 270.208 36.3839C272.077 39.6388 274.932 42.2157 278.361 43.7427L281.651 36.3556C279.788 35.5259 278.237 34.1257 277.221 32.3571C276.206 30.5886 275.778 28.5431 276.001 26.5159C276.223 24.4887 277.084 22.5846 278.459 21.0784C279.834 19.5722 281.652 18.5417 283.65 18.1358C285.649 17.7299 287.725 17.9694 289.578 18.8199C291.432 19.6704 292.967 21.0878 293.963 22.8676C294.959 24.6473 295.363 26.6975 295.118 28.7221C294.873 30.7467 293.991 32.641 292.6 34.1318L298.511 39.65Z" fill="#7B61FF"/>
<path d="M26.3137 498.47C30.0533 498.791 33.798 497.915 37.0074 495.969C40.2169 494.023 42.725 491.108 44.17 487.644C45.615 484.18 45.922 480.346 45.0468 476.696C44.1715 473.047 42.1593 469.769 39.3005 467.337C36.4417 464.905 32.8841 463.445 29.1412 463.166C25.3983 462.887 21.6636 463.805 18.476 465.786C15.2885 467.768 12.813 470.711 11.4068 474.191C10.0006 477.671 9.73641 481.508 10.6523 485.148L18.4945 483.174C17.9969 481.196 18.1404 479.112 18.9045 477.221C19.6686 475.33 21.0136 473.731 22.7456 472.654C24.4776 471.577 26.5069 471.079 28.5406 471.23C30.5744 471.382 32.5074 472.175 34.0608 473.497C35.6141 474.818 36.7075 476.599 37.183 478.582C37.6586 480.565 37.4918 482.648 36.7066 484.53C35.9215 486.413 34.5587 487.997 32.8148 489.054C31.0709 490.111 29.0362 490.587 27.0043 490.413L26.3137 498.47Z" fill="#FF914D"/>
<path d="M1208.21 356.911C1211.4 355.085 1215.38 357.405 1215.36 361.086L1215.28 378.202C1215.27 381.884 1211.27 384.167 1208.09 382.311L1193.31 373.684C1190.13 371.829 1190.15 367.226 1193.34 365.4L1208.21 356.911Z" fill="#5293FD"/>
<path d="M957.809 582L950.957 588.852L944.105 582L939 587.105L945.84 593.957L939 600.809L944.105 605.914L950.957 599.063L957.809 605.914L962.914 600.809L956.063 593.957L962.914 587.105L957.809 582Z" fill="#07BFA5"/>
<path fill-rule="evenodd" clip-rule="evenodd" d="M1335.82 176.817C1339.16 179.291 1341.05 183.275 1341.14 187.841L1341.14 187.854L1341.14 187.854C1341.18 190.402 1342.18 192.078 1343.42 192.997C1344.66 193.918 1346.57 194.395 1349.03 193.695L1351.07 200.872C1346.67 202.118 1342.31 201.464 1338.98 198.99C1335.64 196.516 1333.75 192.536 1333.68 187.974C1333.63 185.413 1332.62 183.73 1331.38 182.81C1330.14 181.89 1328.25 181.419 1325.8 182.122L1325.78 182.126L1325.78 182.126C1321.39 183.372 1317.03 182.718 1313.69 180.244C1310.35 177.769 1308.46 173.786 1308.4 169.221L1315.85 169.108C1315.89 171.655 1316.89 173.332 1318.13 174.251C1319.38 175.171 1321.28 175.648 1323.74 174.95C1328.13 173.693 1332.49 174.343 1335.82 176.817Z" fill="#FFBD59"/>
<path d="M384.427 627.943C384.652 631.424 383.765 634.886 381.894 637.83C380.023 640.775 377.265 643.048 374.019 644.323C370.772 645.598 367.204 645.808 363.829 644.924C360.455 644.039 357.449 642.105 355.246 639.402C353.042 636.698 351.754 633.363 351.568 629.88C351.382 626.397 352.308 622.945 354.212 620.022C356.115 617.099 358.898 614.856 362.159 613.617C365.42 612.379 368.99 612.208 372.354 613.13L370.367 620.379C368.539 619.878 366.6 619.97 364.828 620.643C363.056 621.316 361.544 622.535 360.509 624.123C359.475 625.711 358.972 627.587 359.073 629.48C359.174 631.372 359.874 633.184 361.071 634.653C362.269 636.122 363.902 637.173 365.735 637.654C367.569 638.134 369.507 638.02 371.272 637.327C373.036 636.635 374.534 635.399 375.551 633.8C376.568 632.2 377.05 630.319 376.927 628.427L384.427 627.943Z" fill="#FF6264"/>
<path d="M1412.8 522.58C1407.66 530.02 1399.31 530.02 1394.2 522.58C1389.06 515.14 1380.71 515.14 1375.6 522.58C1370.46 530.02 1362.11 530.02 1357 522.58" fill="#ECB0CD"/>
<path d="M1412.8 534.538C1407.66 540.915 1399.31 540.915 1394.2 534.538C1389.06 528.161 1380.71 528.161 1375.6 534.538C1370.46 540.915 1362.11 540.915 1357 534.538" fill="#ECB0CD"/>
<path d="M1412.8 547.292C1407.66 553.669 1399.31 553.669 1394.2 547.292C1389.06 540.915 1380.71 540.915 1375.6 547.292C1370.46 553.669 1362.11 553.669 1357 547.292" fill="#ECB0CD"/>
</g>
<defs>
<filter id="filter0_f_4036_7436" x="0.551151" y="0.290775" width="1421.82" height="654.737" filterUnits="userSpaceOnUse" color-interpolation-filters="sRGB">
<feFlood flood-opacity="0" result="BackgroundImageFix"/>
<feBlend mode="normal" in="SourceGraphic" in2="BackgroundImageFix" result="shape"/>
<feGaussianBlur stdDeviation="4.7829" result="effect1_foregroundBlur_4036_7436"/>
</filter>
</defs>
</svg>
